<svg width="91" height="91" viewBox="0 0 91 91" fill="none" xmlns="http://www.w3.org/2000/svg">
<path d="M15.1667 22.75H7.58333V75.8333C7.58333 80.0042 10.9958 83.4166 15.1667 83.4166H68.25V75.8333H15.1667V22.75ZM75.8333 7.58331H30.3333C26.1625 7.58331 22.75 10.9958 22.75 15.1666V60.6666C22.75 64.8375 26.1625 68.25 30.3333 68.25H75.8333C80.0042 68.25 83.4167 64.8375 83.4167 60.6666V15.1666C83.4167 10.9958 80.0042 7.58331 75.8333 7.58331ZM75.8333 60.6666H30.3333V15.1666H75.8333V60.6666ZM49.2917 56.875H56.875V41.7083H72.0417V34.125H56.875V18.9583H49.2917V34.125H34.125V41.7083H49.2917V56.875Z" fill="black"/>
</svg>
