<svg width="91" height="91" viewBox="0 0 91 91" fill="none" xmlns="http://www.w3.org/2000/svg">
<path d="M45.8408 7C24.9487 7 8 23.9487 8 44.8408C8 65.7329 24.9487 82.6817 45.8408 82.6817C66.7329 82.6817 83.6817 65.7329 83.6817 44.8408C83.6817 23.9487 66.7329 7 45.8408 7ZM45.8408 75.0983C29.1575 75.0983 15.5833 61.5242 15.5833 44.8408C15.5833 28.1575 29.1575 14.5833 45.8408 14.5833C62.5242 14.5833 76.0983 28.1575 76.0983 44.8408C76.0983 61.5242 62.5242 75.0983 45.8408 75.0983ZM48.6846 18.2992L31.6221 50.5283H43.5279V71.3825L60.0596 39.1533H48.6846V18.2992Z" fill="black"/>
</svg>
