<svg width="91" height="91" viewBox="0 0 91 91" fill="none" xmlns="http://www.w3.org/2000/svg">
<path d="M39.5606 85.6306C42.211 86.0757 44.77 86.1712 47.0471 85.9751C47.427 79.9289 48.344 72.4501 48.7247 66.4022C48.7247 66.4022 48.7247 66.4022 48.7231 66.4022C49.4964 66.4417 50.2053 66.1253 50.5465 65.4988L51.1072 64.4763L51.4122 64.6447L53.3346 61.1428C53.9103 60.0942 53.526 58.7784 52.4771 58.2045L45.5196 54.3859L71.4368 7.16756C71.8145 6.48017 71.4353 5.55188 70.5943 5.09009C69.7533 4.6283 68.7677 4.8115 68.3913 5.49569L42.4741 52.7121L35.5162 48.8886C34.4667 48.318 33.1519 48.7007 32.5772 49.7459L30.653 53.2515L30.9358 53.4031L30.3761 54.4252C30.099 54.9331 30.1212 55.5315 30.3776 56.0789C25.5152 59.6419 19.8425 64.8587 15 68.3873C16.3026 70.8734 18.2011 73.4885 20.5945 75.8645C25.3231 70.4811 30.2664 64.6164 34.9406 59.1473L35.5259 59.4673C30.9324 65.1373 26.1227 71.1143 21.4716 76.7068C23.7742 78.8504 26.475 80.7499 29.3768 82.2372C32.8805 75.5132 36.4734 68.6395 39.9907 61.9206L40.5698 62.2373C37.2333 69.0352 33.827 75.9915 30.5145 82.7944C33.075 83.9977 35.7618 84.8799 38.3875 85.4125C40.2745 78.5452 42.4558 71.2329 44.4468 64.3638L45.0262 64.6805C43.2482 71.4922 41.2301 78.8325 39.5606 85.6306ZM31.5153 53.723L50.5268 64.1599L49.9663 65.1819C49.5938 65.858 48.6201 66.036 47.7941 65.5828L31.7816 56.7963C30.9546 56.3446 30.5838 55.423 30.9546 54.7455L31.5153 53.723Z" fill="black"/>
<rect x="67.7646" y="3" width="8.35365" height="60.3574" rx="4" transform="rotate(29.9866 67.7646 3)" fill="black"/>
</svg>
