<svg width="939" height="806" viewBox="0 0 939 806" fill="none" xmlns="http://www.w3.org/2000/svg">
<rect width="939" height="806" fill="white" fill-opacity="0.5"/>
<rect width="938" height="18" fill="black"/>
<rect width="10" height="173" fill="black"/>
<path d="M8 147H230V157H8V147Z" fill="black"/>
<rect x="920" y="18" width="18" height="788" fill="black"/>
<rect x="657" y="18" width="10" height="186" fill="black"/>
<rect x="657" y="616" width="10" height="173" fill="black"/>
<rect y="788" width="920" height="18" fill="black"/>
<rect y="626" width="230" height="10" fill="black"/>
<rect y="243" width="10" height="383" fill="black"/>
<line x1="614.798" y1="558.398" x2="657.798" y2="615.398" stroke="black" stroke-width="2"/>
<line x1="584.925" y1="485.62" x2="614.925" y2="558.62" stroke="black" stroke-width="2"/>
<line x1="574.991" y1="409.87" x2="584.991" y2="485.87" stroke="black" stroke-width="2"/>
<line y1="-1" x2="71.4003" y2="-1" transform="matrix(0.602239 -0.798316 -0.798316 -0.602239 614 261)" stroke="black" stroke-width="2"/>
<line y1="-1" x2="78.924" y2="-1" transform="matrix(0.380112 -0.92494 -0.92494 -0.380112 584 334)" stroke="black" stroke-width="2"/>
<line y1="-1" x2="76.6551" y2="-1" transform="matrix(0.130455 -0.991454 -0.991454 -0.130455 574 410)" stroke="black" stroke-width="2"/>
<line x1="630.791" y1="551.388" x2="671.791" y2="604.388" stroke="black" stroke-width="2"/>
<line x1="601.918" y1="484.603" x2="630.918" y2="551.603" stroke="black" stroke-width="2"/>
<line x1="591.991" y1="409.868" x2="601.991" y2="484.868" stroke="black" stroke-width="2"/>
<path d="M632 265L671.603 213.696" stroke="black" stroke-width="2"/>
<line x1="602.083" y1="333.601" x2="632.083" y2="264.601" stroke="black" stroke-width="2"/>
<path d="M592 410.5L602 333.5" stroke="black" stroke-width="2"/>
<line y1="-1" x2="63.4103" y2="-1" transform="matrix(0.614653 0.788798 -0.793102 0.609089 646.074 543.982)" stroke="black" stroke-width="2"/>
<line y1="-1" x2="68.9786" y2="-1" transform="matrix(0.399659 0.916664 -0.918769 0.394796 618.506 480.752)" stroke="black" stroke-width="2"/>
<path d="M609.5 409.5L619.422 480.631" stroke="black" stroke-width="2"/>
<path d="M648 273L685.21 224.387" stroke="black" stroke-width="2"/>
<path d="M619.5 339L648.084 272.599" stroke="black" stroke-width="2"/>
<path d="M609.469 410.045L619.529 338.184" stroke="black" stroke-width="2"/>
<rect x="220" y="104" width="10" height="44" fill="black"/>
<rect x="220" y="18" width="10" height="19" fill="black"/>
<line x1="225" y1="37" x2="225" y2="104" stroke="black" stroke-width="4"/>
<line x1="5" y1="173" x2="5" y2="245" stroke="black" stroke-width="4"/>
</svg>
