<svg width="91" height="91" viewBox="0 0 91 91" fill="none" xmlns="http://www.w3.org/2000/svg">
<rect width="91" height="91" fill="white"/>
<path d="M25.6317 18.3518L18.8067 11.5647L13.4604 16.911L20.2475 23.6981L25.6317 18.3518ZM3.79167 39.8127H15.1667V47.396H3.79167V39.8127ZM41.7083 2.08557H49.2917V13.271H41.7083V2.08557ZM72.1933 11.5458L77.532 16.8807L70.7449 23.6677L65.41 18.3291L72.1933 11.5458ZM65.3683 68.8568L72.1554 75.6818L77.5017 70.3356L70.6767 63.5485L65.3683 68.8568ZM75.8333 39.8127H87.2083V47.396H75.8333V39.8127ZM45.5 20.8543C32.9496 20.8543 22.75 31.0539 22.75 43.6043C22.75 56.1547 32.9496 66.3543 45.5 66.3543C58.0504 66.3543 68.25 56.1547 68.25 43.6043C68.25 31.0539 58.0504 20.8543 45.5 20.8543ZM45.5 58.771C37.1204 58.771 30.3333 51.9839 30.3333 43.6043C30.3333 35.2247 37.1204 28.4377 45.5 28.4377C53.8796 28.4377 60.6667 35.2247 60.6667 43.6043C60.6667 51.9839 53.8796 58.771 45.5 58.771ZM41.7083 73.9377H49.2917V85.1231H41.7083V73.9377ZM13.4604 70.2977L18.8067 75.6439L25.5938 68.8189L20.2475 63.4727L13.4604 70.2977Z" fill="black"/>
</svg>
