<svg width="91" height="91" viewBox="0 0 91 91" fill="none" xmlns="http://www.w3.org/2000/svg">
<path d="M12 33.8779V56.6279H27.1667L46.125 75.5863V14.9196L27.1667 33.8779H12ZM38.5417 33.2333V57.2725L30.3137 49.0446H19.5833V41.4613H30.3137L38.5417 33.2333ZM63.1875 45.2529C63.1875 38.5417 59.32 32.7783 53.7083 29.9725V60.4954C59.32 57.7275 63.1875 51.9642 63.1875 45.2529ZM53.7083 12V19.8108C64.6663 23.0717 72.6667 33.2333 72.6667 45.2529C72.6667 57.2725 64.6663 67.4342 53.7083 70.695V78.5058C68.9129 75.0554 80.25 61.4813 80.25 45.2529C80.25 29.0246 68.9129 15.4504 53.7083 12V12Z" fill="black"/>
</svg>
