<svg width="91" height="91" viewBox="0 0 91 91" fill="none" xmlns="http://www.w3.org/2000/svg">
<path d="M25.4225 18.5833C25.65 21.9579 26.2187 25.2567 27.1287 28.4038L22.5788 32.9538C21.0242 28.4038 20.0383 23.5883 19.6971 18.5833H25.4225V18.5833ZM62.8083 64.1592C66.0312 65.0692 69.33 65.6379 72.6667 65.8654V71.515C67.6617 71.1737 62.8463 70.1879 58.2583 68.6712L62.8083 64.1592V64.1592ZM29.0625 11H15.7917C13.7062 11 12 12.7062 12 14.7917C12 50.3954 40.8546 79.25 76.4583 79.25C78.5438 79.25 80.25 77.5438 80.25 75.4583V62.2254C80.25 60.14 78.5438 58.4338 76.4583 58.4338C71.7567 58.4338 67.1688 57.6754 62.9221 56.2725C62.5429 56.1208 62.1258 56.0829 61.7467 56.0829C60.7608 56.0829 59.8129 56.4621 59.0546 57.1825L50.7129 65.5242C39.9825 60.0262 31.1858 51.2675 25.7258 40.5371L34.0675 32.1954C35.1292 31.1338 35.4325 29.655 35.0154 28.3279C33.6125 24.0813 32.8542 19.5313 32.8542 14.7917C32.8542 12.7062 31.1479 11 29.0625 11Z" fill="black"/>
</svg>
