<svg width="91" height="56" viewBox="0 0 91 56" fill="none" xmlns="http://www.w3.org/2000/svg">
<g clip-path="url(#clip0)">
<path fill-rule="evenodd" clip-rule="evenodd" d="M48.4682 23.0713H70.7221V7.49919H20.2779V23.0713H42.5318V49.7668H34.8304V55.7365H56.1694V49.7668H48.4682V23.0713ZM26.2128 17.1018V13.4696H64.7874V17.1018H26.2128ZM5.93473 0.178589H0V55.1198H5.93473V46.9453H22.2214V55.1198H28.1561V31.6083H31.3801V25.6386H5.93473V0.178589ZM22.2214 31.6081V40.9756H5.93473V31.6083H22.2214V31.6081ZM85.0653 0.178589V25.6388H59.6198V31.6085H62.8437V55.12H68.7784V46.9455H85.0651V55.12H91V0.178589H85.0653ZM85.0653 40.9756H68.7786V31.6083H85.0653V40.9758V40.9756Z" fill="black"/>
</g>
<defs>
<clipPath id="clip0">
<rect width="91" height="55.5579" fill="white"/>
</clipPath>
</defs>
</svg>
