<svg width="414" height="291" viewBox="0 0 414 291" fill="none" xmlns="http://www.w3.org/2000/svg">
<g id="Curtain">
<g id="rep" filter="url(#filter0_d)">
<path d="M207 128V238" stroke="black" stroke-width="3"/>
</g>
<g id="Ellipse 1" filter="url(#filter1_d)">
<circle cx="206.5" cy="260.5" r="21" stroke="black" stroke-width="3"/>
</g>
<g id="Rectangle 1" filter="url(#filter2_d)">
<path d="M0 -35H431V139.76C431 139.76 418.507 146.296 403.412 135.975C388.316 125.654 352.716 133.118 328.195 139.76C284.731 151.533 264.95 157.651 225.39 139.76C185.83 121.869 152.516 129.25 125.448 139.76C98.3804 150.27 72.8744 143.342 40.6014 131.974C8.3285 120.605 0 139.76 0 139.76V-35Z" fill="#CB0000"/>
</g>
<path id="Vector 4" d="M21 128V-16L-126 -4.2449" stroke="black" stroke-opacity="0.25"/>
<path id="Vector 3" d="M323 142V-6.03217L268 -61" stroke="black" stroke-opacity="0.25"/>
<path id="Vector 1" d="M128.519 138.5L128 2" stroke="black" stroke-opacity="0.25"/>
<path id="Vector 2" d="M224 139.5V1" stroke="black" stroke-opacity="0.25"/>
<path id="Vector 5" d="M399 133.5V2" stroke="black" stroke-opacity="0.25"/>
</g>
<defs>
<filter id="filter0_d" x="205.5" y="128" width="11" height="118" filterUnits="userSpaceOnUse" color-interpolation-filters="sRGB">
<feFlood flood-opacity="0" result="BackgroundImageFix"/>
<feColorMatrix in="SourceAlpha" type="matrix" values="0 0 0 0 0 0 0 0 0 0 0 0 0 0 0 0 0 0 127 0"/>
<feOffset dx="4" dy="4"/>
<feGaussianBlur stdDeviation="2"/>
<feColorMatrix type="matrix" values="0 0 0 0 0 0 0 0 0 0 0 0 0 0 0 0 0 0 0.35 0"/>
<feBlend mode="normal" in2="BackgroundImageFix" result="effect1_dropShadow"/>
<feBlend mode="normal" in="SourceGraphic" in2="effect1_dropShadow" result="shape"/>
</filter>
<filter id="filter1_d" x="184" y="238" width="53" height="53" filterUnits="userSpaceOnUse" color-interpolation-filters="sRGB">
<feFlood flood-opacity="0" result="BackgroundImageFix"/>
<feColorMatrix in="SourceAlpha" type="matrix" values="0 0 0 0 0 0 0 0 0 0 0 0 0 0 0 0 0 0 127 0"/>
<feOffset dx="4" dy="4"/>
<feGaussianBlur stdDeviation="2"/>
<feColorMatrix type="matrix" values="0 0 0 0 0 0 0 0 0 0 0 0 0 0 0 0 0 0 0.35 0"/>
<feBlend mode="normal" in2="BackgroundImageFix" result="effect1_dropShadow"/>
<feBlend mode="normal" in="SourceGraphic" in2="effect1_dropShadow" result="shape"/>
</filter>
<filter id="filter2_d" x="0" y="-35" width="439" height="194" filterUnits="userSpaceOnUse" color-interpolation-filters="sRGB">
<feFlood flood-opacity="0" result="BackgroundImageFix"/>
<feColorMatrix in="SourceAlpha" type="matrix" values="0 0 0 0 0 0 0 0 0 0 0 0 0 0 0 0 0 0 127 0"/>
<feOffset dx="4" dy="4"/>
<feGaussianBlur stdDeviation="2"/>
<feColorMatrix type="matrix" values="0 0 0 0 0 0 0 0 0 0 0 0 0 0 0 0 0 0 0.35 0"/>
<feBlend mode="normal" in2="BackgroundImageFix" result="effect1_dropShadow"/>
<feBlend mode="normal" in="SourceGraphic" in2="effect1_dropShadow" result="shape"/>
</filter>
</defs>
</svg>
