<svg width="91" height="91" viewBox="0 0 91 91" fill="none" xmlns="http://www.w3.org/2000/svg">
<path d="M45.5 7.65918C24.6079 7.65918 7.65916 24.6079 7.65916 45.5C7.65916 66.3921 24.6079 83.3408 45.5 83.3408C66.3921 83.3408 83.3408 66.3921 83.3408 45.5C83.3408 24.6079 66.3921 7.65918 45.5 7.65918ZM45.5 75.7575C28.8167 75.7575 15.2425 62.1833 15.2425 45.5C15.2425 28.8167 28.8167 15.2425 45.5 15.2425C62.1833 15.2425 75.7575 28.8167 75.7575 45.5C75.7575 62.1833 62.1833 75.7575 45.5 75.7575ZM48.3437 18.9583L31.2812 51.1875H43.1871V72.0417L59.7187 39.8125H48.3437V18.9583Z" fill="black"/>
</svg>
