<svg id="Layer_1" data-name="Layer 1" xmlns="http://www.w3.org/2000/svg" xmlns:xlink="http://www.w3.org/1999/xlink" viewBox="0 0 3235.31 1200.05"><defs><style>.cls-1{fill:none;}.cls-2{clip-path:url(#clip-path);}.cls-3{fill:#cd0000;}.cls-4{fill:#fff;}</style><clipPath id="clip-path" transform="translate(-147.69 -1171.36)"><rect class="cls-1" width="3401.57" height="3401.57"/></clipPath></defs><title>double-mask-logo(transparent)</title><g class="cls-2"><path class="cls-3" d="M172.37,1324.47c22.62-12.57,55.39,9.13,78.35,22.35,121.08,69.67,254.35,67,289.22,66.32,42.39-.85,71.94-7.74,118.95-18.78,61.4-14.41,136.24-32.47,208.46-85.06,24-17.48,40.75-29.68,60.83-50.62,27.52-26.08,88.26-82.91,98.82-85.1.19,0,11-2.21,11-2.21s12.53-.46,25.66,9.1c74,53.95,96,290.48,96,290.48,23.92,257,7.89,410-16.55,483.31,0,0-54.91,179.63-164.69,281.38-16.06,14.88-45.93,42-92.69,56.28-35.09,10.73-65.52,9.93-89.38,9.1,0,0-52.26-1.8-105.1-19-163.68-53.39-303.72-216.83-303.72-216.83A1242.77,1242.77,0,0,1,280,1912.88s-153.89-257-129.69-537.93c1.46-16.92,5.29-41.14,22.1-50.48" transform="translate(-147.69 -1171.36)"/><path class="cls-4" d="M489.69,1974.12c-2.79,3.94,6.53,15,9.93,19,102.27,121.34,206.9,142.34,206.9,142.34,28.65,5.75,87.54,16.81,154.76-7.45,102.8-37.09,174.06-138.37,180.41-235.86,2.08-31.84,4-41.91-1.66-45.52-14.73-9.45-49.45,28.73-92.69,58.76-62.11,43.14-122.07,55.73-168,65.38-110.07,23.12-247.37,12.92-274.76,4.14-2.21-.71-12.49-4.22-14.9-.83" transform="translate(-147.69 -1171.36)"/><path class="cls-4" d="M827.18,1725.05c-3.6-1.87-3-9.76-2.31-15.76,3.68-32.46,13.74-121.19,74.48-140.69,31.62-10.15,66.12,1.95,91.13,10.72,12.67,4.44,24.78,10.23,35.77,15.49,22,10.5,42.37,20.26,41.1,24.69-1.34,4.69-25.61-1-74.48-1.24-13.3-.06-23.93-.12-31.45.62-72.53,7.11-119.85,113.66-134.24,106.17" transform="translate(-147.69 -1171.36)"/><path class="cls-4" d="M620.12,1767c2.45-3.23-1.47-10.1-4.65-15.23C598.26,1724,551.2,1648.07,488,1656.44c-32.92,4.35-58.93,30-77.79,48.68-9.55,9.43-18,19.85-25.7,29.3-15.36,18.89-29.63,36.43-26.59,39.9,3.21,3.66,22.72-11.86,66.79-33,12-5.75,21.58-10.34,28.69-12.89,68.6-24.6,157,51.47,166.76,38.54" transform="translate(-147.69 -1171.36)"/></g><g class="cls-2"><path class="cls-4" d="M3358.31,1394.42c-22.62-12.57-55.39,9.13-78.35,22.35-121.08,69.67-254.34,67-289.22,66.32-42.39-.85-71.94-7.74-118.95-18.78-61.4-14.41-136.24-32.47-208.46-85.06-24-17.48-40.75-29.68-60.83-50.62-27.52-26.08-88.26-82.91-98.82-85.1-.19,0-11-2.21-11-2.21s-12.53-.46-25.66,9.1c-74,53.95-96,290.48-96,290.48-23.92,257-7.89,410,16.55,483.31h0s54.91,179.63,164.69,281.38c16.05,14.88,45.93,42,92.69,56.28,35.09,10.73,65.52,9.93,89.38,9.1,0,0,52.26-1.8,105.1-19,163.68-53.39,303.72-216.83,303.72-216.83a1242.91,1242.91,0,0,0,107.59-152.28s153.89-257,129.69-537.93c-1.46-16.92-5.29-41.14-22.1-50.48" transform="translate(-147.69 -1171.36)"/><path class="cls-4" d="M2522.21,2089.38c-2.3-3.44,5.35-13.13,8.14-16.66,83.91-106.22,169.81-124.65,169.81-124.65,23.52-5,71.87-14.74,127.07,6.45,84.42,32.42,143,121,148.24,206.31,1.72,27.86,3.27,36.67-1.34,39.83-12.09,8.28-40.62-25.12-76.13-51.38-51-37.72-100.26-48.72-138-57.14-90.39-20.18-203.12-11.2-225.6-3.5-1.81.62-10.25,3.7-12.23.73" transform="translate(-147.69 -1171.36)"/><path class="cls-4" d="M2911.41,1718.34c-3.67,2.52-2.75,9.68-1.88,15.82,4.56,32.34,17,120.78,78.28,138.61,31.89,9.29,66-3.75,90.8-13.2,12.54-4.78,24.49-10.9,35.33-16.45,27.36-14,41-21.07,40.42-25.8-1.54-12.29-73.22,8.59-141.73-24.59-57.3-27.76-89.66-82.32-101.22-74.39" transform="translate(-147.69 -1171.36)"/><path class="cls-4" d="M2730,1689c2.31,3.8-1.47,10-4.78,15.2-17.44,27.62-65.12,103.13-128.3,94.24-32.89-4.63-58.68-30.54-77.38-49.32-9.47-9.51-17.85-20-25.46-29.51-19.19-24-28.74-36.05-26.26-40.12,6.45-10.58,63.23,37.9,139.33,35.78,63.65-1.77,115.56-38.23,122.84-26.26" transform="translate(-147.69 -1171.36)"/><path class="cls-3" d="M3358.31,1394.42c-22.62-12.57-55.39,9.13-78.35,22.35-121.08,69.67-254.34,67-289.22,66.32-42.39-.85-71.94-7.74-118.95-18.78-61.4-14.41-136.24-32.47-208.46-85.06-24-17.48-40.75-29.68-60.83-50.62-27.52-26.08-88.26-82.91-98.82-85.1-.19,0-11-2.21-11-2.21s-12.53-.46-25.66,9.1c-74,53.95-96,290.48-96,290.48-23.92,257-7.89,410,16.55,483.31h0s54.91,179.63,164.69,281.38c16.05,14.88,45.93,42,92.69,56.28,35.09,10.73,65.52,9.93,89.38,9.1,0,0,52.26-1.8,105.1-19,163.68-53.39,303.72-216.83,303.72-216.83a1242.91,1242.91,0,0,0,107.59-152.28s153.89-257,129.69-537.93c-1.46-16.92-5.29-41.14-22.1-50.48" transform="translate(-147.69 -1171.36)"/><path class="cls-4" d="M2522.21,2089.38c-2.3-3.44,5.35-13.13,8.14-16.66,83.91-106.22,169.81-124.65,169.81-124.65,23.52-5,71.87-14.74,127.07,6.45,84.42,32.42,143,121,148.24,206.31,1.72,27.86,3.27,36.67-1.34,39.83-12.09,8.28-40.62-25.12-76.13-51.38-51-37.72-100.26-48.72-138-57.14-90.39-20.18-203.12-11.2-225.6-3.5-1.81.62-10.25,3.7-12.23.73" transform="translate(-147.69 -1171.36)"/><path class="cls-4" d="M2911.41,1718.34c-3.67,2.52-2.75,9.68-1.88,15.82,4.56,32.34,17,120.78,78.28,138.61,31.89,9.29,66-3.75,90.8-13.2,12.54-4.78,24.49-10.9,35.33-16.45,27.36-14,41-21.07,40.42-25.8-1.54-12.29-73.22,8.59-141.73-24.59-57.3-27.76-89.66-82.32-101.22-74.39" transform="translate(-147.69 -1171.36)"/><path class="cls-4" d="M2730,1689c2.31,3.8-1.47,10-4.78,15.2-17.44,27.62-65.12,103.13-128.3,94.24-32.89-4.63-58.68-30.54-77.38-49.32-9.47-9.51-17.85-20-25.46-29.51-19.19-24-28.74-36.05-26.26-40.12,6.45-10.58,63.23,37.9,139.33,35.78,63.65-1.77,115.56-38.23,122.84-26.26" transform="translate(-147.69 -1171.36)"/></g></svg>