<svg id="Lager_1" data-name="Lager 1" xmlns="http://www.w3.org/2000/svg" viewBox="0 0 414 39.9"><defs><style>.cls-1{fill:#cb0000;}</style></defs><path class="cls-1" d="M1184,881.27V850h414v37.56a78.12,78.12,0,0,1-27,.91c-6.68-1-8.35-2.17-19-4.47a173.44,173.44,0,0,0-26-4c-13-.83-23,.7-33.54,2.36-14.8,2.34-15.31,3.71-29.09,5.85a163.7,163.7,0,0,1-27.3,1.68,260,260,0,0,1-35.57-2.33c-21.78-3-22.81-6.24-35.5-5.88-15.37.43-18.88,5.27-39.09,6.4a132.18,132.18,0,0,1-21.41-.52c-40.35-4.35-55.81-15.94-77.5-8.56-6.16,2.1-14.74,6.37-29,8a94.39,94.39,0,0,1-14,.56Z" transform="translate(-1184 -850)"/></svg>