<svg width="91" height="91" viewBox="0 0 91 91" fill="none" xmlns="http://www.w3.org/2000/svg">
<rect width="91" height="91" fill="white"/>
<path d="M24.84 19.2663L18.015 12.4792L12.6687 17.8254L19.4558 24.6125L24.84 19.2663ZM3 40.7271H14.375V48.3104H3V40.7271ZM40.9167 3H48.5V14.1854H40.9167V3ZM71.4017 12.4602L76.7403 17.7951L69.9532 24.5822L64.6184 19.2435L71.4017 12.4602ZM64.5767 69.7713L71.3637 76.5963L76.71 71.25L69.885 64.4629L64.5767 69.7713ZM75.0417 40.7271H86.4167V48.3104H75.0417V40.7271ZM44.7083 21.7687C32.1579 21.7687 21.9583 31.9683 21.9583 44.5187C21.9583 57.0692 32.1579 67.2688 44.7083 67.2688C57.2587 67.2688 67.4583 57.0692 67.4583 44.5187C67.4583 31.9683 57.2587 21.7687 44.7083 21.7687ZM44.7083 59.6854C36.3287 59.6854 29.5417 52.8983 29.5417 44.5187C29.5417 36.1392 36.3287 29.3521 44.7083 29.3521C53.0879 29.3521 59.875 36.1392 59.875 44.5187C59.875 52.8983 53.0879 59.6854 44.7083 59.6854ZM40.9167 74.8521H48.5V86.0375H40.9167V74.8521ZM12.6687 71.2121L18.015 76.5583L24.8021 69.7333L19.4558 64.3871L12.6687 71.2121Z" fill="black"/>
</svg>
