<svg width="807" height="940" viewBox="0 0 807 940" fill="none" xmlns="http://www.w3.org/2000/svg">
<g clip-path="url(#clip0)">
<rect width="939" height="806" transform="translate(806.5 0.499817) rotate(90)" fill="white" fill-opacity="0.5"/>
<rect x="806.5" y="0.499817" width="938.001" height="18" transform="rotate(90 806.5 0.499817)" fill="black"/>
<rect x="806.5" y="0.499817" width="10" height="173" transform="rotate(90 806.5 0.499817)" fill="black"/>
<path d="M659.5 8.49982V230.5H649.5V8.49982H659.5Z" fill="black"/>
<rect x="788.5" y="920.501" width="18" height="788.001" transform="rotate(90 788.5 920.501)" fill="black"/>
<rect x="788.5" y="657.5" width="10" height="186" transform="rotate(90 788.5 657.5)" fill="black"/>
<rect x="190.499" y="657.5" width="10" height="173" transform="rotate(90 190.499 657.5)" fill="black"/>
<rect x="18.4992" y="0.499817" width="920.001" height="18" transform="rotate(90 18.4992 0.499817)" fill="black"/>
<rect x="180.499" y="0.499817" width="230" height="10" transform="rotate(90 180.499 0.499817)" fill="black"/>
<rect x="563.5" y="0.499817" width="10" height="383" transform="rotate(90 563.5 0.499817)" fill="black"/>
<line x1="248.102" y1="615.299" x2="191.102" y2="658.299" stroke="black" stroke-width="2"/>
<line x1="320.88" y1="585.425" x2="247.879" y2="615.425" stroke="black" stroke-width="2"/>
<line x1="396.63" y1="575.492" x2="320.63" y2="585.492" stroke="black" stroke-width="2"/>
<line y1="-1" x2="71.4003" y2="-1" transform="matrix(0.798317 0.602239 0.602239 -0.798317 545.5 614.5)" stroke="black" stroke-width="2"/>
<line y1="-1" x2="78.924" y2="-1" transform="matrix(0.924941 0.380113 0.380113 -0.924941 472.5 584.5)" stroke="black" stroke-width="2"/>
<line y1="-1" x2="76.6551" y2="-1" transform="matrix(0.991455 0.130455 0.130455 -0.991455 396.499 574.5)" stroke="black" stroke-width="2"/>
<line x1="255.111" y1="631.291" x2="202.111" y2="672.291" stroke="black" stroke-width="2"/>
<line x1="321.897" y1="602.418" x2="254.897" y2="631.418" stroke="black" stroke-width="2"/>
<line x1="396.632" y1="592.492" x2="321.632" y2="602.492" stroke="black" stroke-width="2"/>
<path d="M541.5 632.5L592.803 672.103" stroke="black" stroke-width="2"/>
<line x1="472.898" y1="602.583" x2="541.898" y2="632.583" stroke="black" stroke-width="2"/>
<path d="M395.999 592.5L473 602.5" stroke="black" stroke-width="2"/>
<line y1="-1" x2="63.4103" y2="-1" transform="matrix(-0.788799 0.614653 -0.60909 -0.793102 262.517 646.574)" stroke="black" stroke-width="2"/>
<line y1="-1" x2="68.9786" y2="-1" transform="matrix(-0.916665 0.399659 -0.394797 -0.918769 325.747 619.007)" stroke="black" stroke-width="2"/>
<path d="M396.999 610L325.869 619.923" stroke="black" stroke-width="2"/>
<path d="M533.5 648.5L582.112 685.71" stroke="black" stroke-width="2"/>
<path d="M467.5 620L533.901 648.584" stroke="black" stroke-width="2"/>
<path d="M396.454 609.969L468.315 620.029" stroke="black" stroke-width="2"/>
<rect x="702.5" y="220.5" width="10" height="44" transform="rotate(90 702.5 220.5)" fill="black"/>
<rect x="788.5" y="220.5" width="10" height="19" transform="rotate(90 788.5 220.5)" fill="black"/>
<line x1="769.5" y1="225.5" x2="702.5" y2="225.5" stroke="black" stroke-width="4"/>
<line x1="633.5" y1="5.49982" x2="561.5" y2="5.49982" stroke="black" stroke-width="4"/>
</g>
<defs>
<clipPath id="clip0">
<rect width="939" height="806" fill="white" transform="translate(806.5 0.499817) rotate(90)"/>
</clipPath>
</defs>
</svg>
