<svg id="Layer_1" data-name="Layer 1" xmlns="http://www.w3.org/2000/svg" xmlns:xlink="http://www.w3.org/1999/xlink" viewBox="0 0 3051.54 2278.59"><defs><style>.cls-1{fill:none;}.cls-2{clip-path:url(#clip-path);}.cls-3{fill:#cd0000;}.cls-4{fill:#fff;}</style><clipPath id="clip-path" transform="translate(-168.94 -533.88)"><rect class="cls-1" width="3401.57" height="3401.57"/></clipPath></defs><title>mask-logo</title><g class="cls-2"><path class="cls-3" d="M205.12,758.31c33.16-18.43,81.19,13.39,114.84,32.75,177.48,102.13,372.83,98.23,424,97.21,62.13-1.24,105.45-11.35,174.36-27.52,90-21.12,199.71-47.59,305.57-124.68,35.18-25.62,59.74-43.5,89.16-74.2,40.34-38.23,129.37-121.53,144.85-124.75.28-.06,16.08-3.24,16.17-3.24s18.37-.68,37.61,13.34C1620.1,626.31,1652.38,973,1652.38,973c35.06,376.65,11.57,601-24.26,708.46h0S1547.63,1944.81,1386.7,2094c-23.54,21.81-67.33,61.53-135.87,82.49-51.43,15.73-96,14.55-131,13.34,0,0-76.61-2.64-154.07-27.9-239.93-78.26-445.21-317.84-445.21-317.84a1821.69,1821.69,0,0,1-157.71-223.21S137.26,1244.08,172.72,832.31c2.14-24.8,7.76-60.3,32.4-74" transform="translate(-168.94 -533.88)"/><path class="cls-4" d="M670.27,1710.61c-4.1,5.77,9.57,22,14.56,27.9,149.91,177.86,303.28,208.66,303.28,208.66,42,8.43,128.32,24.64,226.85-10.92,150.69-54.37,255.14-202.82,264.46-345.74,3-46.67,5.81-61.44-2.43-66.72-21.6-13.86-72.49,42.12-135.87,86.13-91.05,63.23-178.94,81.7-246.26,95.84-161.35,33.89-362.62,18.93-402.76,6.07-3.24-1-18.3-6.19-21.84-1.21" transform="translate(-168.94 -533.88)"/><path class="cls-4" d="M1165,1345.51c-5.27-2.74-4.39-14.3-3.39-23.1,5.39-47.57,20.14-177.65,109.18-206.23,46.35-14.88,96.92,2.86,133.58,15.71,18.57,6.51,36.32,15,52.43,22.7,32.2,15.4,62.11,29.69,60.25,36.19-2,6.87-37.54-1.47-109.18-1.82-19.5-.09-35.08-.17-46.1.91-106.32,10.43-175.68,166.61-196.77,155.63" transform="translate(-168.94 -533.88)"/><path class="cls-4" d="M861.45,1407c3.59-4.74-2.15-14.8-6.82-22.33-25.23-40.69-94.2-152-186.91-139.7-48.26,6.38-86.38,44-114,71.35-14,13.83-26.41,29.09-37.68,42.95-22.52,27.69-43.44,53.41-39,58.49,4.71,5.37,33.3-17.39,97.91-48.35,17.59-8.43,31.64-15.16,42.06-18.9,100.56-36.06,230.07,75.44,244.44,56.5" transform="translate(-168.94 -533.88)"/><path class="cls-3" d="M3200.4,1587.47c-28.73-22.75-79.48.07-114.59,13.27-185.14,69.6-370.73,35.34-419.31,26.38-59-10.9-98.74-27.31-161.89-53.49-82.49-34.2-182.92-76.59-271.77-166.62-29.53-29.92-50.14-50.81-73.39-84.67-32.48-42.75-104.31-136.07-118.57-141.56-.26-.1-14.82-5.6-14.91-5.61s-17.4-3.52-37.93,6.84c-115.73,58.42-200.71,383.87-200.71,383.87-92.31,353.54-105,571-87.64,679.08h0s35.55,263.57,165.62,430.89c19,24.47,54.56,69.17,116.61,99.87,46.57,23,89.27,28.88,122.8,33.2,0,0,73.44,9.46,151.22-2.51,240.93-37.08,474.06-233.35,474.06-233.35A1759.79,1759.79,0,0,0,2915.23,2385s273.92-323.85,304.49-721.89c1.84-24,2-58.69-19.31-75.6" transform="translate(-168.94 -533.88)"/><path class="cls-4" d="M1872.92,2366.87c-2.42-5.34,10.49-17.11,15.2-21.41,141.59-129.18,265.83-135.25,265.83-135.25,34-1.66,103.8-4.13,176.07,38.14,110.53,64.64,172,201.83,159.85,322.24-4,39.32-3.83,52-11,55.35-18.79,8.8-51-44.41-94.6-89.23-62.64-64.4-128.92-91-179.68-111.45-121.67-48.92-281.23-62.19-314.4-56.59-2.68.45-15.17,2.82-17.26-1.78" transform="translate(-168.94 -533.88)"/><path class="cls-4" d="M2501.75,1937.64c-5.7,2.68-6.06,12.9-6.26,21.67-1,46.23-3.89,172.65,77.61,211.61,42.42,20.28,93.13,9.9,129.9,2.38,18.62-3.81,36.71-9.62,53.14-14.89,41.44-13.3,62.13-20,62.38-26.78.67-17.53-104.27-4.77-192.4-66.85-73.71-51.91-106.41-135.56-124.37-127.13" transform="translate(-168.94 -533.88)"/><path class="cls-4" d="M2255,1855.13c2.36,5.84-4.33,13.57-10.16,20.14-30.7,34.59-114.63,129.17-200.86,102.26-44.89-14-75-56.12-96.81-86.65-11.05-15.46-20.36-32-28.81-47.07-21.31-37.94-31.89-57-27.49-62.07,11.44-13.3,79.66,67.45,186.48,81.93,89.33,12.11,170.22-26.94,177.65-8.54" transform="translate(-168.94 -533.88)"/></g></svg>