<svg width="156" height="132" viewBox="0 0 156 132" fill="none" xmlns="http://www.w3.org/2000/svg">
<path d="M155.18 8.62782C155.18 3.86296 151.635 0 147.262 0H7.91734C3.54486 0 0 3.86296 0 8.62782V122.515C0 127.28 3.54486 131.143 7.91734 131.143H147.262C151.635 131.143 155.18 127.28 155.18 122.515V8.62782ZM47.02 8.34023C49.4248 8.34023 51.3746 10.465 51.3746 13.0855C51.3746 15.7061 49.4253 17.8308 47.02 17.8308C44.6147 17.8308 42.6655 15.7061 42.6655 13.0855C42.6655 10.465 44.6153 8.34023 47.02 8.34023ZM47.02 27.3214C49.4248 27.3214 51.3746 29.4462 51.3746 32.0667C51.3746 34.6873 49.4253 36.812 47.02 36.812C44.6147 36.812 42.6655 34.6873 42.6655 32.0667C42.6655 29.4462 44.6153 27.3214 47.02 27.3214ZM29.6019 8.34023C32.0066 8.34023 33.9564 10.465 33.9564 13.0855C33.9564 15.7061 32.0072 17.8308 29.6019 17.8308C27.1966 17.8308 25.2473 15.7061 25.2473 13.0855C25.2473 10.465 27.1971 8.34023 29.6019 8.34023ZM29.6019 27.3214C32.0066 27.3214 33.9564 29.4462 33.9564 32.0667C33.9564 34.6873 32.0072 36.812 29.6019 36.812C27.1966 36.812 25.2473 34.6873 25.2473 32.0667C25.2473 29.4462 27.1971 27.3214 29.6019 27.3214ZM12.1837 8.34023C14.5885 8.34023 16.5383 10.465 16.5383 13.0855C16.5383 15.7061 14.589 17.8308 12.1837 17.8308C9.77844 17.8308 7.82919 15.7061 7.82919 13.0855C7.82919 10.465 9.77897 8.34023 12.1837 8.34023ZM12.1837 27.3214C14.5885 27.3214 16.5383 29.4462 16.5383 32.0667C16.5383 34.6873 14.589 36.812 12.1837 36.812C9.77844 36.812 7.82919 34.6873 7.82919 32.0667C7.82919 29.4462 9.77897 27.3214 12.1837 27.3214ZM12.1837 46.3026C14.5885 46.3026 16.5383 48.4274 16.5383 51.0479C16.5383 53.6685 14.589 55.7932 12.1837 55.7932C9.77844 55.7932 7.82919 53.6685 7.82919 51.0479C7.82919 48.4274 9.77897 46.3026 12.1837 46.3026ZM16.3625 98.3571V117.384C16.3625 119.9 14.6666 121.94 12.3579 121.94H12.2735C9.96476 121.94 7.91734 119.9 7.91734 117.384V98.3571H8.00496C5.81819 98.3571 4.0901 96.4262 4.0901 94.0432C4.0901 91.6602 5.79602 89.7293 7.98279 89.7293H7.91734V79.3299C7.91734 76.814 9.96476 74.7744 12.2735 74.7744H12.3579C14.6666 74.7744 16.3625 76.814 16.3625 79.3299V89.7293C18.4738 89.7293 20.3212 91.6602 20.3212 94.0432C20.3212 96.4262 18.4738 98.3571 16.3625 98.3571ZM29.6019 46.3026C32.0066 46.3026 33.9564 48.4274 33.9564 51.0479C33.9564 53.6685 32.0072 55.7932 29.6019 55.7932C27.1966 55.7932 25.2473 53.6685 25.2473 51.0479C25.2473 48.4274 27.1971 46.3026 29.6019 46.3026ZM38.0032 116.756V117.384C38.0032 119.9 36.4393 121.94 34.1306 121.94H34.0461C31.7374 121.94 29.5581 119.9 29.5581 117.384V116.763H29.6457C27.4589 116.763 25.7308 114.832 25.7308 112.449C25.7308 110.066 27.4367 108.135 29.6235 108.135H29.5581V79.3299C29.5581 76.814 31.7374 74.7744 34.0461 74.7744H34.1306C36.4393 74.7744 38.0032 76.814 38.0032 79.3299V108.143C40.1145 108.219 41.8299 110.115 41.8299 112.449C41.8299 114.783 40.1145 116.679 38.0032 116.756ZM42.6655 51.0479C42.6655 48.4274 44.6153 46.3026 47.02 46.3026C49.4248 46.3026 51.3746 48.4274 51.3746 51.0479C51.3746 53.6685 49.4253 55.7932 47.02 55.7932C44.6147 55.7932 42.6655 53.6685 42.6655 51.0479ZM60.3475 90.8797H59.6439V117.384C59.6439 119.9 58.212 121.94 55.9033 121.94H55.8188C53.5101 121.94 51.1988 119.9 51.1988 117.384V90.8653C49.6153 90.7169 47.504 88.8516 47.504 86.5658C47.504 84.28 49.6153 82.4146 51.1988 82.2663V79.3299C51.1988 76.814 53.5101 74.7744 55.8188 74.7744H55.9033C58.212 74.7744 59.6439 76.814 59.6439 79.3299V82.2519H60.3475C62.5343 82.2519 64.3062 84.1828 64.3062 86.5658C64.3062 88.9488 62.5343 90.8797 60.3475 90.8797ZM64.4382 55.7932C62.0334 55.7932 60.0836 53.6685 60.0836 51.0479C60.0836 48.4274 62.0334 46.3026 64.4382 46.3026C66.8429 46.3026 68.7927 48.4274 68.7927 51.0479C68.7927 53.6685 66.8434 55.7932 64.4382 55.7932ZM64.4382 36.812C62.0334 36.812 60.0836 34.6873 60.0836 32.0667C60.0836 29.4462 62.0334 27.3214 64.4382 27.3214C66.8429 27.3214 68.7927 29.4462 68.7927 32.0667C68.7927 34.6873 66.8434 36.812 64.4382 36.812ZM64.4382 17.8308C62.0334 17.8308 60.0836 15.7061 60.0836 13.0855C60.0836 10.465 62.0334 8.34023 64.4382 8.34023C66.8429 8.34023 68.7927 10.465 68.7927 13.0855C68.7927 15.7061 66.8434 17.8308 64.4382 17.8308ZM81.9001 98.3571H81.8125V117.384C81.8125 119.9 79.9846 121.94 77.6759 121.94H77.5915C75.2828 121.94 73.3673 119.9 73.3673 117.384V98.3497C71.256 98.2732 69.5406 96.3773 69.5406 94.0432C69.5406 91.7091 71.256 89.8133 73.3673 89.7368V79.3299C73.3673 76.814 75.2828 74.7744 77.5915 74.7744H77.6759C79.9846 74.7744 81.8125 76.814 81.8125 79.3299V89.7293H81.9001C84.0869 89.7293 85.8588 91.6602 85.8588 94.0432C85.8588 96.4262 84.0869 98.3571 81.9001 98.3571ZM81.8563 55.7932C79.4515 55.7932 77.5018 53.6685 77.5018 51.0479C77.5018 48.4274 79.4515 46.3026 81.8563 46.3026C84.2611 46.3026 86.2108 48.4274 86.2108 51.0479C86.2108 53.6685 84.2616 55.7932 81.8563 55.7932ZM81.8563 36.812C79.4515 36.812 77.5018 34.6873 77.5018 32.0667C77.5018 29.4462 79.4515 27.3214 81.8563 27.3214C84.2611 27.3214 86.2108 29.4462 86.2108 32.0667C86.2108 34.6873 84.2616 36.812 81.8563 36.812ZM81.8563 17.8308C79.4515 17.8308 77.5018 15.7061 77.5018 13.0855C77.5018 10.465 79.4515 8.34023 81.8563 8.34023C84.2611 8.34023 86.2108 10.465 86.2108 13.0855C86.2108 15.7061 84.2616 17.8308 81.8563 17.8308ZM103.453 106.985V117.384C103.453 119.9 101.757 121.94 99.4486 121.94H99.3642C97.0555 121.94 95.0081 119.9 95.0081 117.384V106.985H95.0957C92.9089 106.985 91.1808 105.054 91.1808 102.671C91.1808 100.288 92.8867 98.3571 95.0735 98.3571H95.0081V79.3299C95.0081 76.814 97.0555 74.7744 99.3642 74.7744H99.4486C101.757 74.7744 103.453 76.814 103.453 79.3299V98.3571C105.565 98.3571 107.412 100.288 107.412 102.671C107.412 105.054 105.565 106.985 103.453 106.985ZM125.798 97.7819H125.094V117.384C125.094 119.9 123.53 121.94 121.221 121.94H121.137C118.828 121.94 116.649 119.9 116.649 117.384V97.7601C114.537 97.5438 113.086 95.7049 113.086 93.468C113.086 91.2311 114.537 89.3923 116.649 89.176V79.3299C116.649 76.814 118.828 74.7744 121.137 74.7744H121.221C123.53 74.7744 125.094 76.814 125.094 79.3299V89.1541H125.798C127.984 89.1541 129.756 91.085 129.756 93.468C129.756 95.851 127.984 97.7819 125.798 97.7819ZM133.129 17.8308C129.955 17.8308 127.205 20.6349 127.205 24.0946V55.7932H116.121V43.3605C116.121 39.7438 113.606 36.812 110.287 36.812H110.166C106.847 36.812 103.981 39.7438 103.981 43.3605V55.7932H95.0081V8.05263H147.262V55.7932H138.817V24.0946C138.817 20.6349 136.42 17.8308 133.245 17.8308H133.129ZM147.438 116.763H146.735V117.384C146.735 119.9 145.303 121.94 142.994 121.94H142.91C140.601 121.94 138.29 119.9 138.29 117.384V116.749C136.706 116.6 134.595 114.735 134.595 112.449C134.595 110.163 136.706 108.298 138.29 108.15V79.3299C138.29 76.814 140.601 74.7744 142.91 74.7744H142.994C145.303 74.7744 146.735 76.814 146.735 79.3299V108.135H147.438C149.625 108.135 151.397 110.066 151.397 112.449C151.397 114.832 149.625 116.763 147.438 116.763Z" fill="white"/>
</svg>
