<svg width="91" height="91" viewBox="0 0 91 91" fill="none" xmlns="http://www.w3.org/2000/svg">
<path fill-rule="evenodd" clip-rule="evenodd" d="M48.4029 40.3896H70.1678V25.1597H20.8322V40.3896H42.5971V66.4983H35.0649V72.3368H55.9349V66.4983H48.4029V40.3896ZM26.6367 34.5512V30.9989H64.3635V34.5512H26.6367ZM6.80429 18H1V71.7337H6.80429V63.7389H22.733V71.7337H28.5373V48.7389H31.6904V42.9004H6.80429V18ZM22.733 48.7388V57.9004H6.80429V48.7389H22.733V48.7388ZM84.1957 18V42.9006H59.3094V48.7391H62.4625V71.7339H68.2668V63.739H84.1955V71.7339H90V18H84.1957ZM84.1957 57.9004H68.267V48.7389H84.1957V57.9005V57.9004Z" fill="black"/>
</svg>
